<mxfile host="app.diagrams.net" modified="2023-01-01T14:52:23.423Z" agent="5.0 (X11; Linux x86_64) AppleWebKit/537.36 (KHTML, like Gecko) Chrome/108.0.0.0 Safari/537.36" etag="tIxVtnJz3WDa_d3mVkEW" version="20.7.4" type="github">
  <diagram name="Page-1" id="42789a77-a242-8287-6e28-9cd8cfd52e62">
    <mxGraphModel dx="3174" dy="703" grid="1" gridSize="10" guides="1" tooltips="1" connect="1" arrows="1" fold="1" page="1" pageScale="1" pageWidth="1100" pageHeight="850" background="#F2F2F2" math="0" shadow="0">
      <root>
        <mxCell id="0" />
        <mxCell id="1" parent="0" />
        <mxCell id="1ea317790d2ca983-12" value="tiene" style="edgeStyle=none;rounded=1;html=1;labelBackgroundColor=none;startArrow=none;startFill=0;startSize=5;endArrow=classicThin;endFill=1;endSize=5;jettySize=auto;orthogonalLoop=1;strokeColor=#B3B3B3;strokeWidth=1;fontFamily=Verdana;fontSize=12" parent="1" source="1ea317790d2ca983-1" target="1ea317790d2ca983-2" edge="1">
          <mxGeometry relative="1" as="geometry" />
        </mxCell>
        <mxCell id="1ea317790d2ca983-13" value="tiene" style="edgeStyle=none;rounded=1;html=1;labelBackgroundColor=none;startArrow=none;startFill=0;startSize=5;endArrow=classicThin;endFill=1;endSize=5;jettySize=auto;orthogonalLoop=1;strokeColor=#B3B3B3;strokeWidth=1;fontFamily=Verdana;fontSize=12" parent="1" source="1ea317790d2ca983-1" target="1ea317790d2ca983-9" edge="1">
          <mxGeometry relative="1" as="geometry" />
        </mxCell>
        <mxCell id="1ea317790d2ca983-14" value="tiene" style="edgeStyle=none;rounded=1;html=1;labelBackgroundColor=none;startArrow=none;startFill=0;startSize=5;endArrow=classicThin;endFill=1;endSize=5;jettySize=auto;orthogonalLoop=1;strokeColor=#B3B3B3;strokeWidth=1;fontFamily=Verdana;fontSize=12" parent="1" source="1ea317790d2ca983-1" target="1ea317790d2ca983-3" edge="1">
          <mxGeometry relative="1" as="geometry" />
        </mxCell>
        <mxCell id="gg1AurhE85ztV64m09aA-3" value="tiene" style="rounded=1;orthogonalLoop=1;jettySize=auto;html=1;fillColor=#f5f5f5;strokeColor=#B3B3B3;" edge="1" parent="1" source="1ea317790d2ca983-1" target="gg1AurhE85ztV64m09aA-1">
          <mxGeometry relative="1" as="geometry" />
        </mxCell>
        <mxCell id="1ea317790d2ca983-1" value="&lt;h1&gt;Fases de la creatividad&lt;/h1&gt;" style="ellipse;whiteSpace=wrap;html=1;rounded=0;shadow=1;comic=0;labelBackgroundColor=none;strokeWidth=1;fontFamily=Verdana;fontSize=12;align=center;" parent="1" vertex="1">
          <mxGeometry x="732.5" y="90" width="427.5" height="60" as="geometry" />
        </mxCell>
        <mxCell id="gg1AurhE85ztV64m09aA-40" value="es" style="edgeStyle=none;rounded=1;orthogonalLoop=1;jettySize=auto;html=1;strokeColor=#B3B3B3;" edge="1" parent="1" source="1ea317790d2ca983-2" target="gg1AurhE85ztV64m09aA-39">
          <mxGeometry relative="1" as="geometry" />
        </mxCell>
        <mxCell id="gg1AurhE85ztV64m09aA-55" value="es" style="edgeStyle=none;rounded=1;orthogonalLoop=1;jettySize=auto;html=1;strokeColor=#B3B3B3;" edge="1" parent="1" source="1ea317790d2ca983-2" target="gg1AurhE85ztV64m09aA-54">
          <mxGeometry relative="1" as="geometry" />
        </mxCell>
        <mxCell id="gg1AurhE85ztV64m09aA-58" value="aborda" style="edgeStyle=none;rounded=1;orthogonalLoop=1;jettySize=auto;html=1;exitX=1;exitY=0.5;exitDx=0;exitDy=0;strokeColor=#B3B3B3;" edge="1" parent="1" source="1ea317790d2ca983-2" target="gg1AurhE85ztV64m09aA-57">
          <mxGeometry relative="1" as="geometry" />
        </mxCell>
        <mxCell id="1ea317790d2ca983-2" value="&lt;h2&gt;&lt;span&gt;Incubaci贸n&lt;/span&gt;&lt;/h2&gt;" style="ellipse;whiteSpace=wrap;html=1;rounded=0;shadow=1;comic=0;labelBackgroundColor=none;strokeWidth=1;fontFamily=Verdana;fontSize=12;align=center;fillColor=#ffe6cc;strokeColor=#d79b00;" parent="1" vertex="1">
          <mxGeometry x="560" y="320" width="172.5" height="50" as="geometry" />
        </mxCell>
        <mxCell id="1ea317790d2ca983-15" value="es" style="edgeStyle=none;rounded=1;html=1;labelBackgroundColor=none;startArrow=none;startFill=0;startSize=5;endArrow=classicThin;endFill=1;endSize=5;jettySize=auto;orthogonalLoop=1;strokeColor=#B3B3B3;strokeWidth=1;fontFamily=Verdana;fontSize=12" parent="1" source="1ea317790d2ca983-3" target="1ea317790d2ca983-4" edge="1">
          <mxGeometry relative="1" as="geometry" />
        </mxCell>
        <mxCell id="gg1AurhE85ztV64m09aA-60" value="es" style="edgeStyle=none;rounded=1;orthogonalLoop=1;jettySize=auto;html=1;exitX=1;exitY=0;exitDx=0;exitDy=0;strokeColor=#B3B3B3;" edge="1" parent="1" source="1ea317790d2ca983-3" target="gg1AurhE85ztV64m09aA-59">
          <mxGeometry relative="1" as="geometry" />
        </mxCell>
        <mxCell id="gg1AurhE85ztV64m09aA-61" value="se manifiestan" style="edgeStyle=none;rounded=1;orthogonalLoop=1;jettySize=auto;html=1;exitX=0.5;exitY=1;exitDx=0;exitDy=0;entryX=0.964;entryY=0.271;entryDx=0;entryDy=0;entryPerimeter=0;strokeColor=#B3B3B3;" edge="1" parent="1" source="1ea317790d2ca983-3" target="gg1AurhE85ztV64m09aA-50">
          <mxGeometry relative="1" as="geometry">
            <Array as="points">
              <mxPoint x="1140" y="600" />
            </Array>
          </mxGeometry>
        </mxCell>
        <mxCell id="gg1AurhE85ztV64m09aA-63" value="se manifiesta" style="edgeStyle=none;rounded=1;orthogonalLoop=1;jettySize=auto;html=1;strokeColor=#B3B3B3;" edge="1" parent="1" source="1ea317790d2ca983-3" target="gg1AurhE85ztV64m09aA-62">
          <mxGeometry relative="1" as="geometry" />
        </mxCell>
        <mxCell id="gg1AurhE85ztV64m09aA-66" value="no es" style="edgeStyle=none;rounded=1;orthogonalLoop=1;jettySize=auto;html=1;strokeColor=#B3B3B3;" edge="1" parent="1" source="1ea317790d2ca983-3" target="gg1AurhE85ztV64m09aA-65">
          <mxGeometry relative="1" as="geometry" />
        </mxCell>
        <mxCell id="gg1AurhE85ztV64m09aA-68" value="requiere" style="edgeStyle=none;rounded=1;orthogonalLoop=1;jettySize=auto;html=1;exitX=1;exitY=1;exitDx=0;exitDy=0;strokeColor=#B3B3B3;" edge="1" parent="1" source="1ea317790d2ca983-3" target="gg1AurhE85ztV64m09aA-67">
          <mxGeometry relative="1" as="geometry" />
        </mxCell>
        <mxCell id="1ea317790d2ca983-3" value="&lt;h2&gt;&lt;span&gt;Iluminaci贸n&lt;/span&gt;&lt;/h2&gt;" style="ellipse;whiteSpace=wrap;html=1;rounded=0;shadow=1;comic=0;labelBackgroundColor=none;strokeWidth=1;fontFamily=Verdana;fontSize=12;align=center;fillColor=#ffe6cc;strokeColor=#d79b00;" parent="1" vertex="1">
          <mxGeometry x="980" y="390" width="190" height="50" as="geometry" />
        </mxCell>
        <mxCell id="1ea317790d2ca983-4" value="&lt;span&gt;visi贸n&lt;/span&gt;" style="ellipse;whiteSpace=wrap;html=1;rounded=0;shadow=1;comic=0;labelBackgroundColor=none;strokeWidth=1;fontFamily=Verdana;fontSize=12;align=center;" parent="1" vertex="1">
          <mxGeometry x="1220" y="300" width="100" height="50" as="geometry" />
        </mxCell>
        <mxCell id="1ea317790d2ca983-19" value="es" style="edgeStyle=none;rounded=1;html=1;labelBackgroundColor=none;startArrow=none;startFill=0;startSize=5;endArrow=classicThin;endFill=1;endSize=5;jettySize=auto;orthogonalLoop=1;strokeColor=#B3B3B3;strokeWidth=1;fontFamily=Verdana;fontSize=12" parent="1" source="1ea317790d2ca983-9" target="1ea317790d2ca983-10" edge="1">
          <mxGeometry relative="1" as="geometry" />
        </mxCell>
        <mxCell id="gg1AurhE85ztV64m09aA-5" value="surge" style="edgeStyle=none;rounded=1;orthogonalLoop=1;jettySize=auto;html=1;exitX=0.5;exitY=1;exitDx=0;exitDy=0;strokeColor=#B3B3B3;" edge="1" parent="1" source="1ea317790d2ca983-9" target="gg1AurhE85ztV64m09aA-4">
          <mxGeometry relative="1" as="geometry" />
        </mxCell>
        <mxCell id="gg1AurhE85ztV64m09aA-32" value="una vez encontrado" style="edgeStyle=none;rounded=1;orthogonalLoop=1;jettySize=auto;html=1;exitX=1;exitY=1;exitDx=0;exitDy=0;strokeColor=#B3B3B3;" edge="1" parent="1" source="1ea317790d2ca983-9" target="gg1AurhE85ztV64m09aA-31">
          <mxGeometry relative="1" as="geometry" />
        </mxCell>
        <mxCell id="1ea317790d2ca983-9" value="&lt;h2&gt;Preparaci贸n&lt;/h2&gt;" style="ellipse;whiteSpace=wrap;html=1;rounded=0;shadow=1;comic=0;labelBackgroundColor=none;strokeWidth=1;fontFamily=Verdana;fontSize=12;align=center;fillColor=#ffe6cc;strokeColor=#d79b00;" parent="1" vertex="1">
          <mxGeometry x="200" y="240" width="190" height="50" as="geometry" />
        </mxCell>
        <mxCell id="1ea317790d2ca983-10" value="&lt;span&gt;Fase exploratoria&lt;/span&gt;" style="ellipse;whiteSpace=wrap;html=1;rounded=0;shadow=1;comic=0;labelBackgroundColor=none;strokeWidth=1;fontFamily=Verdana;fontSize=12;align=center;" parent="1" vertex="1">
          <mxGeometry x="20" y="240" width="130" height="50" as="geometry" />
        </mxCell>
        <mxCell id="gg1AurhE85ztV64m09aA-72" value="es" style="edgeStyle=none;rounded=1;orthogonalLoop=1;jettySize=auto;html=1;strokeColor=#B3B3B3;" edge="1" parent="1" source="gg1AurhE85ztV64m09aA-1" target="gg1AurhE85ztV64m09aA-71">
          <mxGeometry relative="1" as="geometry" />
        </mxCell>
        <mxCell id="gg1AurhE85ztV64m09aA-76" value="se transforma" style="edgeStyle=none;rounded=1;orthogonalLoop=1;jettySize=auto;html=1;exitX=1;exitY=1;exitDx=0;exitDy=0;strokeColor=#B3B3B3;" edge="1" parent="1" source="gg1AurhE85ztV64m09aA-1" target="gg1AurhE85ztV64m09aA-75">
          <mxGeometry relative="1" as="geometry" />
        </mxCell>
        <mxCell id="gg1AurhE85ztV64m09aA-82" value="es" style="edgeStyle=none;rounded=1;orthogonalLoop=1;jettySize=auto;html=1;exitX=0.5;exitY=1;exitDx=0;exitDy=0;strokeColor=#B3B3B3;" edge="1" parent="1" source="gg1AurhE85ztV64m09aA-1" target="gg1AurhE85ztV64m09aA-81">
          <mxGeometry relative="1" as="geometry" />
        </mxCell>
        <mxCell id="gg1AurhE85ztV64m09aA-90" value="&lt;span style=&quot;color: rgb(0, 0, 0); font-family: Verdana; font-size: 12px; font-style: normal; font-variant-ligatures: normal; font-variant-caps: normal; font-weight: 400; letter-spacing: normal; orphans: 2; text-align: center; text-indent: 0px; text-transform: none; widows: 2; word-spacing: 0px; -webkit-text-stroke-width: 0px; background-color: rgb(251, 251, 251); text-decoration-thickness: initial; text-decoration-style: initial; text-decoration-color: initial; float: none; display: inline !important;&quot;&gt;requiere&lt;/span&gt;" style="edgeStyle=none;rounded=1;orthogonalLoop=1;jettySize=auto;html=1;strokeColor=#B3B3B3;" edge="1" parent="1" source="gg1AurhE85ztV64m09aA-1" target="gg1AurhE85ztV64m09aA-89">
          <mxGeometry relative="1" as="geometry" />
        </mxCell>
        <mxCell id="gg1AurhE85ztV64m09aA-92" value="est谩" style="edgeStyle=none;rounded=1;orthogonalLoop=1;jettySize=auto;html=1;strokeColor=#B3B3B3;" edge="1" parent="1" source="gg1AurhE85ztV64m09aA-1" target="gg1AurhE85ztV64m09aA-91">
          <mxGeometry relative="1" as="geometry" />
        </mxCell>
        <mxCell id="gg1AurhE85ztV64m09aA-94" value="est谩" style="edgeStyle=none;rounded=1;orthogonalLoop=1;jettySize=auto;html=1;exitX=1;exitY=0.5;exitDx=0;exitDy=0;entryX=0;entryY=0.5;entryDx=0;entryDy=0;strokeColor=#B3B3B3;" edge="1" parent="1" source="gg1AurhE85ztV64m09aA-1" target="gg1AurhE85ztV64m09aA-93">
          <mxGeometry relative="1" as="geometry" />
        </mxCell>
        <mxCell id="gg1AurhE85ztV64m09aA-99" value="tiene" style="edgeStyle=none;rounded=1;orthogonalLoop=1;jettySize=auto;html=1;exitX=1;exitY=1;exitDx=0;exitDy=0;strokeColor=#B3B3B3;" edge="1" parent="1" source="gg1AurhE85ztV64m09aA-1" target="gg1AurhE85ztV64m09aA-98">
          <mxGeometry relative="1" as="geometry" />
        </mxCell>
        <mxCell id="gg1AurhE85ztV64m09aA-1" value="&lt;h2&gt;Verificaci贸n&lt;/h2&gt;" style="ellipse;whiteSpace=wrap;html=1;rounded=0;shadow=1;comic=0;labelBackgroundColor=none;strokeWidth=1;fontFamily=Verdana;fontSize=12;align=center;fillColor=#ffe6cc;strokeColor=#d79b00;" vertex="1" parent="1">
          <mxGeometry x="1200" y="160" width="210" height="50" as="geometry" />
        </mxCell>
        <mxCell id="gg1AurhE85ztV64m09aA-7" value="a la" style="edgeStyle=none;rounded=1;orthogonalLoop=1;jettySize=auto;html=1;strokeColor=#B3B3B3;" edge="1" parent="1" source="gg1AurhE85ztV64m09aA-4" target="gg1AurhE85ztV64m09aA-6">
          <mxGeometry relative="1" as="geometry" />
        </mxCell>
        <mxCell id="gg1AurhE85ztV64m09aA-9" value="necesidad de" style="edgeStyle=none;rounded=1;orthogonalLoop=1;jettySize=auto;html=1;exitX=1;exitY=1;exitDx=0;exitDy=0;strokeColor=#B3B3B3;" edge="1" parent="1" source="gg1AurhE85ztV64m09aA-4" target="gg1AurhE85ztV64m09aA-8">
          <mxGeometry relative="1" as="geometry" />
        </mxCell>
        <mxCell id="gg1AurhE85ztV64m09aA-11" value="necesidad de" style="edgeStyle=none;rounded=1;orthogonalLoop=1;jettySize=auto;html=1;strokeColor=#B3B3B3;" edge="1" parent="1" source="gg1AurhE85ztV64m09aA-4" target="gg1AurhE85ztV64m09aA-10">
          <mxGeometry relative="1" as="geometry" />
        </mxCell>
        <mxCell id="gg1AurhE85ztV64m09aA-13" value="necesidad de" style="edgeStyle=none;rounded=1;orthogonalLoop=1;jettySize=auto;html=1;strokeColor=#B3B3B3;exitX=1;exitY=0.5;exitDx=0;exitDy=0;" edge="1" parent="1" source="gg1AurhE85ztV64m09aA-4" target="gg1AurhE85ztV64m09aA-12">
          <mxGeometry relative="1" as="geometry">
            <mxPoint x="160" y="440" as="sourcePoint" />
          </mxGeometry>
        </mxCell>
        <mxCell id="gg1AurhE85ztV64m09aA-15" value="necesidad de" style="edgeStyle=none;rounded=1;orthogonalLoop=1;jettySize=auto;html=1;strokeColor=#B3B3B3;" edge="1" parent="1" source="gg1AurhE85ztV64m09aA-4" target="gg1AurhE85ztV64m09aA-14">
          <mxGeometry relative="1" as="geometry" />
        </mxCell>
        <mxCell id="gg1AurhE85ztV64m09aA-23" value="tipos de" style="edgeStyle=none;rounded=1;orthogonalLoop=1;jettySize=auto;html=1;strokeColor=#B3B3B3;" edge="1" parent="1" source="1ea317790d2ca983-9" target="gg1AurhE85ztV64m09aA-22">
          <mxGeometry relative="1" as="geometry" />
        </mxCell>
        <mxCell id="gg1AurhE85ztV64m09aA-4" value="impulso" style="ellipse;whiteSpace=wrap;html=1;rounded=0;shadow=1;comic=0;labelBackgroundColor=none;strokeWidth=1;fontFamily=Verdana;fontSize=12;align=center;" vertex="1" parent="1">
          <mxGeometry x="220" y="540" width="120" height="50" as="geometry" />
        </mxCell>
        <mxCell id="gg1AurhE85ztV64m09aA-21" value="es parte" style="edgeStyle=none;rounded=1;orthogonalLoop=1;jettySize=auto;html=1;entryX=0;entryY=0.5;entryDx=0;entryDy=0;strokeColor=#B3B3B3;" edge="1" parent="1" source="gg1AurhE85ztV64m09aA-6" target="gg1AurhE85ztV64m09aA-16">
          <mxGeometry relative="1" as="geometry" />
        </mxCell>
        <mxCell id="gg1AurhE85ztV64m09aA-6" value="actividad" style="ellipse;whiteSpace=wrap;html=1;rounded=0;shadow=1;comic=0;labelBackgroundColor=none;strokeWidth=1;fontFamily=Verdana;fontSize=12;align=center;" vertex="1" parent="1">
          <mxGeometry x="30" y="770" width="120" height="50" as="geometry" />
        </mxCell>
        <mxCell id="gg1AurhE85ztV64m09aA-19" style="edgeStyle=none;rounded=1;orthogonalLoop=1;jettySize=auto;html=1;exitX=1;exitY=1;exitDx=0;exitDy=0;entryX=0.444;entryY=0;entryDx=0;entryDy=0;entryPerimeter=0;strokeColor=#B3B3B3;" edge="1" parent="1" source="gg1AurhE85ztV64m09aA-8" target="gg1AurhE85ztV64m09aA-16">
          <mxGeometry relative="1" as="geometry" />
        </mxCell>
        <mxCell id="gg1AurhE85ztV64m09aA-8" value="dar forma" style="ellipse;whiteSpace=wrap;html=1;rounded=0;shadow=1;comic=0;labelBackgroundColor=none;strokeWidth=1;fontFamily=Verdana;fontSize=12;align=center;" vertex="1" parent="1">
          <mxGeometry x="330" y="710" width="120" height="50" as="geometry" />
        </mxCell>
        <mxCell id="gg1AurhE85ztV64m09aA-17" style="edgeStyle=none;rounded=1;orthogonalLoop=1;jettySize=auto;html=1;strokeColor=#B3B3B3;" edge="1" parent="1" source="gg1AurhE85ztV64m09aA-10" target="gg1AurhE85ztV64m09aA-16">
          <mxGeometry relative="1" as="geometry" />
        </mxCell>
        <mxCell id="gg1AurhE85ztV64m09aA-10" value="solucionar" style="ellipse;whiteSpace=wrap;html=1;rounded=0;shadow=1;comic=0;labelBackgroundColor=none;strokeWidth=1;fontFamily=Verdana;fontSize=12;align=center;" vertex="1" parent="1">
          <mxGeometry x="240" y="810" width="120" height="50" as="geometry" />
        </mxCell>
        <mxCell id="gg1AurhE85ztV64m09aA-20" style="edgeStyle=none;rounded=1;orthogonalLoop=1;jettySize=auto;html=1;exitX=0.5;exitY=1;exitDx=0;exitDy=0;entryX=0.713;entryY=0.06;entryDx=0;entryDy=0;entryPerimeter=0;strokeColor=#B3B3B3;" edge="1" parent="1" source="gg1AurhE85ztV64m09aA-12" target="gg1AurhE85ztV64m09aA-16">
          <mxGeometry relative="1" as="geometry" />
        </mxCell>
        <mxCell id="gg1AurhE85ztV64m09aA-12" value="ordernar" style="ellipse;whiteSpace=wrap;html=1;rounded=0;shadow=1;comic=0;labelBackgroundColor=none;strokeWidth=1;fontFamily=Verdana;fontSize=12;align=center;" vertex="1" parent="1">
          <mxGeometry x="430" y="640" width="120" height="50" as="geometry" />
        </mxCell>
        <mxCell id="gg1AurhE85ztV64m09aA-14" value="cambiar" style="ellipse;whiteSpace=wrap;html=1;rounded=0;shadow=1;comic=0;labelBackgroundColor=none;strokeWidth=1;fontFamily=Verdana;fontSize=12;align=center;" vertex="1" parent="1">
          <mxGeometry x="150" y="750" width="120" height="50" as="geometry" />
        </mxCell>
        <mxCell id="gg1AurhE85ztV64m09aA-36" value="para llegar al" style="edgeStyle=none;rounded=1;orthogonalLoop=1;jettySize=auto;html=1;entryX=0.5;entryY=1;entryDx=0;entryDy=0;strokeColor=#B3B3B3;" edge="1" parent="1" source="gg1AurhE85ztV64m09aA-16" target="gg1AurhE85ztV64m09aA-31">
          <mxGeometry relative="1" as="geometry">
            <Array as="points">
              <mxPoint x="560" y="960" />
              <mxPoint x="560" y="520" />
              <mxPoint x="390" y="520" />
            </Array>
          </mxGeometry>
        </mxCell>
        <mxCell id="gg1AurhE85ztV64m09aA-16" value="estado de las cosas" style="ellipse;whiteSpace=wrap;html=1;rounded=0;shadow=1;comic=0;labelBackgroundColor=none;strokeWidth=1;fontFamily=Verdana;fontSize=12;align=center;" vertex="1" parent="1">
          <mxGeometry x="350" y="930" width="160" height="50" as="geometry" />
        </mxCell>
        <mxCell id="gg1AurhE85ztV64m09aA-25" style="edgeStyle=none;rounded=1;orthogonalLoop=1;jettySize=auto;html=1;strokeColor=#B3B3B3;" edge="1" parent="1" source="gg1AurhE85ztV64m09aA-22" target="gg1AurhE85ztV64m09aA-24">
          <mxGeometry relative="1" as="geometry" />
        </mxCell>
        <mxCell id="gg1AurhE85ztV64m09aA-27" style="edgeStyle=none;rounded=1;orthogonalLoop=1;jettySize=auto;html=1;strokeColor=#B3B3B3;" edge="1" parent="1" source="gg1AurhE85ztV64m09aA-22" target="gg1AurhE85ztV64m09aA-26">
          <mxGeometry relative="1" as="geometry" />
        </mxCell>
        <mxCell id="gg1AurhE85ztV64m09aA-22" value="soluciones" style="ellipse;whiteSpace=wrap;html=1;rounded=0;shadow=1;comic=0;labelBackgroundColor=none;strokeWidth=1;fontFamily=Verdana;fontSize=12;align=center;" vertex="1" parent="1">
          <mxGeometry x="60" y="340" width="120" height="50" as="geometry" />
        </mxCell>
        <mxCell id="gg1AurhE85ztV64m09aA-30" value="examina una parte" style="edgeStyle=none;rounded=1;orthogonalLoop=1;jettySize=auto;html=1;exitX=0.5;exitY=1;exitDx=0;exitDy=0;strokeColor=#B3B3B3;" edge="1" parent="1" source="gg1AurhE85ztV64m09aA-24" target="gg1AurhE85ztV64m09aA-28">
          <mxGeometry x="-0.2294" y="2" relative="1" as="geometry">
            <mxPoint as="offset" />
          </mxGeometry>
        </mxCell>
        <mxCell id="gg1AurhE85ztV64m09aA-24" value="convergente" style="ellipse;whiteSpace=wrap;html=1;rounded=0;shadow=1;comic=0;labelBackgroundColor=none;strokeWidth=1;fontFamily=Verdana;fontSize=12;align=center;" vertex="1" parent="1">
          <mxGeometry x="130" y="480" width="120" height="50" as="geometry" />
        </mxCell>
        <mxCell id="gg1AurhE85ztV64m09aA-29" value="examina toda la" style="edgeStyle=none;rounded=1;orthogonalLoop=1;jettySize=auto;html=1;strokeColor=#B3B3B3;" edge="1" parent="1" source="gg1AurhE85ztV64m09aA-26" target="gg1AurhE85ztV64m09aA-28">
          <mxGeometry x="0.5087" y="-17" relative="1" as="geometry">
            <mxPoint as="offset" />
          </mxGeometry>
        </mxCell>
        <mxCell id="gg1AurhE85ztV64m09aA-26" value="divergente" style="ellipse;whiteSpace=wrap;html=1;rounded=0;shadow=1;comic=0;labelBackgroundColor=none;strokeWidth=1;fontFamily=Verdana;fontSize=12;align=center;" vertex="1" parent="1">
          <mxGeometry x="-10" y="480" width="120" height="50" as="geometry" />
        </mxCell>
        <mxCell id="gg1AurhE85ztV64m09aA-35" value="se analiza" style="edgeStyle=none;rounded=1;orthogonalLoop=1;jettySize=auto;html=1;entryX=0.044;entryY=0.68;entryDx=0;entryDy=0;strokeColor=#B3B3B3;entryPerimeter=0;" edge="1" parent="1" source="gg1AurhE85ztV64m09aA-28" target="gg1AurhE85ztV64m09aA-16">
          <mxGeometry relative="1" as="geometry">
            <Array as="points">
              <mxPoint x="90" y="750" />
              <mxPoint x="10" y="750" />
              <mxPoint x="10" y="960" />
            </Array>
          </mxGeometry>
        </mxCell>
        <mxCell id="gg1AurhE85ztV64m09aA-28" value="realidad" style="ellipse;whiteSpace=wrap;html=1;rounded=0;shadow=1;comic=0;labelBackgroundColor=none;strokeWidth=1;fontFamily=Verdana;fontSize=12;align=center;" vertex="1" parent="1">
          <mxGeometry x="30" y="630" width="120" height="50" as="geometry" />
        </mxCell>
        <mxCell id="gg1AurhE85ztV64m09aA-33" value="se avanza a la" style="edgeStyle=none;rounded=1;orthogonalLoop=1;jettySize=auto;html=1;strokeColor=#B3B3B3;" edge="1" parent="1" source="gg1AurhE85ztV64m09aA-31" target="1ea317790d2ca983-2">
          <mxGeometry relative="1" as="geometry" />
        </mxCell>
        <mxCell id="gg1AurhE85ztV64m09aA-49" value="se plantea" style="edgeStyle=none;rounded=1;orthogonalLoop=1;jettySize=auto;html=1;exitX=1;exitY=1;exitDx=0;exitDy=0;entryX=0;entryY=0;entryDx=0;entryDy=0;strokeColor=#B3B3B3;" edge="1" parent="1" source="gg1AurhE85ztV64m09aA-31" target="gg1AurhE85ztV64m09aA-45">
          <mxGeometry relative="1" as="geometry">
            <Array as="points">
              <mxPoint x="600" y="510" />
              <mxPoint x="600" y="680" />
            </Array>
          </mxGeometry>
        </mxCell>
        <mxCell id="gg1AurhE85ztV64m09aA-31" value="problema definido" style="ellipse;whiteSpace=wrap;html=1;rounded=0;shadow=1;comic=0;labelBackgroundColor=none;strokeWidth=1;fontFamily=Verdana;fontSize=12;align=center;" vertex="1" parent="1">
          <mxGeometry x="310" y="440" width="120" height="50" as="geometry" />
        </mxCell>
        <mxCell id="gg1AurhE85ztV64m09aA-42" value="se desarrolla" style="edgeStyle=none;rounded=1;orthogonalLoop=1;jettySize=auto;html=1;strokeColor=#B3B3B3;" edge="1" parent="1" source="gg1AurhE85ztV64m09aA-39" target="gg1AurhE85ztV64m09aA-41">
          <mxGeometry relative="1" as="geometry" />
        </mxCell>
        <mxCell id="gg1AurhE85ztV64m09aA-44" value="se desarrolla" style="edgeStyle=none;rounded=1;orthogonalLoop=1;jettySize=auto;html=1;exitX=1;exitY=1;exitDx=0;exitDy=0;strokeColor=#B3B3B3;" edge="1" parent="1" source="gg1AurhE85ztV64m09aA-39" target="gg1AurhE85ztV64m09aA-43">
          <mxGeometry relative="1" as="geometry" />
        </mxCell>
        <mxCell id="gg1AurhE85ztV64m09aA-39" value="&lt;span&gt;etapa intuitiva&lt;/span&gt;" style="ellipse;whiteSpace=wrap;html=1;rounded=0;shadow=1;comic=0;labelBackgroundColor=none;strokeWidth=1;fontFamily=Verdana;fontSize=12;align=center;" vertex="1" parent="1">
          <mxGeometry x="720" y="540" width="122.5" height="50" as="geometry" />
        </mxCell>
        <mxCell id="gg1AurhE85ztV64m09aA-46" value="se aplica" style="edgeStyle=none;rounded=1;orthogonalLoop=1;jettySize=auto;html=1;strokeColor=#B3B3B3;" edge="1" parent="1" source="gg1AurhE85ztV64m09aA-41" target="gg1AurhE85ztV64m09aA-45">
          <mxGeometry relative="1" as="geometry" />
        </mxCell>
        <mxCell id="gg1AurhE85ztV64m09aA-41" value="subconsciente" style="ellipse;whiteSpace=wrap;html=1;rounded=0;shadow=1;comic=0;labelBackgroundColor=none;strokeWidth=1;fontFamily=Verdana;fontSize=12;align=center;" vertex="1" parent="1">
          <mxGeometry x="640" y="630" width="122.5" height="50" as="geometry" />
        </mxCell>
        <mxCell id="gg1AurhE85ztV64m09aA-47" value="se aplica" style="edgeStyle=none;rounded=1;orthogonalLoop=1;jettySize=auto;html=1;entryX=0.609;entryY=0.04;entryDx=0;entryDy=0;entryPerimeter=0;strokeColor=#B3B3B3;" edge="1" parent="1" source="gg1AurhE85ztV64m09aA-43" target="gg1AurhE85ztV64m09aA-45">
          <mxGeometry relative="1" as="geometry" />
        </mxCell>
        <mxCell id="gg1AurhE85ztV64m09aA-43" value="&lt;span&gt;inconsciente&lt;/span&gt;" style="ellipse;whiteSpace=wrap;html=1;rounded=0;shadow=1;comic=0;labelBackgroundColor=none;strokeWidth=1;fontFamily=Verdana;fontSize=12;align=center;" vertex="1" parent="1">
          <mxGeometry x="800" y="650" width="122.5" height="50" as="geometry" />
        </mxCell>
        <mxCell id="gg1AurhE85ztV64m09aA-51" value="se imaginan las" style="edgeStyle=none;rounded=1;orthogonalLoop=1;jettySize=auto;html=1;strokeColor=#B3B3B3;exitX=1;exitY=0.5;exitDx=0;exitDy=0;" edge="1" parent="1" source="gg1AurhE85ztV64m09aA-52" target="gg1AurhE85ztV64m09aA-50">
          <mxGeometry relative="1" as="geometry" />
        </mxCell>
        <mxCell id="gg1AurhE85ztV64m09aA-53" style="edgeStyle=none;rounded=1;orthogonalLoop=1;jettySize=auto;html=1;strokeColor=#B3B3B3;" edge="1" parent="1" source="gg1AurhE85ztV64m09aA-45" target="gg1AurhE85ztV64m09aA-52">
          <mxGeometry relative="1" as="geometry" />
        </mxCell>
        <mxCell id="gg1AurhE85ztV64m09aA-45" value="es libre" style="ellipse;whiteSpace=wrap;html=1;rounded=0;shadow=1;comic=0;labelBackgroundColor=none;strokeWidth=1;fontFamily=Verdana;fontSize=12;align=center;" vertex="1" parent="1">
          <mxGeometry x="680" y="775" width="151" height="35" as="geometry" />
        </mxCell>
        <mxCell id="gg1AurhE85ztV64m09aA-50" value="soluciones" style="ellipse;whiteSpace=wrap;html=1;rounded=0;shadow=1;comic=0;labelBackgroundColor=none;strokeWidth=1;fontFamily=Verdana;fontSize=12;align=center;" vertex="1" parent="1">
          <mxGeometry x="1010" y="777.5" width="151" height="35" as="geometry" />
        </mxCell>
        <mxCell id="gg1AurhE85ztV64m09aA-52" value="comprensi贸n total" style="ellipse;whiteSpace=wrap;html=1;rounded=0;shadow=1;comic=0;labelBackgroundColor=none;strokeWidth=1;fontFamily=Verdana;fontSize=12;align=center;" vertex="1" parent="1">
          <mxGeometry x="680" y="850" width="151" height="35" as="geometry" />
        </mxCell>
        <mxCell id="gg1AurhE85ztV64m09aA-56" value="se buscan" style="edgeStyle=none;rounded=1;orthogonalLoop=1;jettySize=auto;html=1;exitX=0.5;exitY=1;exitDx=0;exitDy=0;entryX=0.5;entryY=0;entryDx=0;entryDy=0;strokeColor=#B3B3B3;" edge="1" parent="1" source="gg1AurhE85ztV64m09aA-54" target="gg1AurhE85ztV64m09aA-50">
          <mxGeometry relative="1" as="geometry" />
        </mxCell>
        <mxCell id="gg1AurhE85ztV64m09aA-54" value="&lt;span&gt;tiempo de espera&lt;/span&gt;" style="ellipse;whiteSpace=wrap;html=1;rounded=0;shadow=1;comic=0;labelBackgroundColor=none;strokeWidth=1;fontFamily=Verdana;fontSize=12;align=center;" vertex="1" parent="1">
          <mxGeometry x="960.5" y="570" width="130" height="50" as="geometry" />
        </mxCell>
        <mxCell id="gg1AurhE85ztV64m09aA-57" value="&lt;span&gt;enfoques nuevos&lt;/span&gt;" style="ellipse;whiteSpace=wrap;html=1;rounded=0;shadow=1;comic=0;labelBackgroundColor=none;strokeWidth=1;fontFamily=Verdana;fontSize=12;align=center;" vertex="1" parent="1">
          <mxGeometry x="953.75" y="490" width="122.5" height="50" as="geometry" />
        </mxCell>
        <mxCell id="gg1AurhE85ztV64m09aA-59" value="&lt;span&gt;concepci贸n&lt;/span&gt;" style="ellipse;whiteSpace=wrap;html=1;rounded=0;shadow=1;comic=0;labelBackgroundColor=none;strokeWidth=1;fontFamily=Verdana;fontSize=12;align=center;" vertex="1" parent="1">
          <mxGeometry x="1330" y="360" width="110" height="50" as="geometry" />
        </mxCell>
        <mxCell id="gg1AurhE85ztV64m09aA-64" value="es posible llegar a las" style="rounded=1;orthogonalLoop=1;jettySize=auto;html=1;entryX=1;entryY=0.5;entryDx=0;entryDy=0;strokeColor=#B3B3B3;" edge="1" parent="1" source="gg1AurhE85ztV64m09aA-62" target="gg1AurhE85ztV64m09aA-50">
          <mxGeometry relative="1" as="geometry" />
        </mxCell>
        <mxCell id="gg1AurhE85ztV64m09aA-70" value="es" style="edgeStyle=none;rounded=1;orthogonalLoop=1;jettySize=auto;html=1;strokeColor=#B3B3B3;" edge="1" parent="1" source="gg1AurhE85ztV64m09aA-62" target="gg1AurhE85ztV64m09aA-69">
          <mxGeometry relative="1" as="geometry" />
        </mxCell>
        <mxCell id="gg1AurhE85ztV64m09aA-62" value="&lt;span&gt;serendipia&lt;/span&gt;" style="ellipse;whiteSpace=wrap;html=1;rounded=0;shadow=1;comic=0;labelBackgroundColor=none;strokeWidth=1;fontFamily=Verdana;fontSize=12;align=center;" vertex="1" parent="1">
          <mxGeometry x="1210" y="580" width="110" height="50" as="geometry" />
        </mxCell>
        <mxCell id="gg1AurhE85ztV64m09aA-65" value="&lt;span&gt;r铆gido&lt;/span&gt;" style="ellipse;whiteSpace=wrap;html=1;rounded=0;shadow=1;comic=0;labelBackgroundColor=none;strokeWidth=1;fontFamily=Verdana;fontSize=12;align=center;" vertex="1" parent="1">
          <mxGeometry x="1430" y="430" width="110" height="50" as="geometry" />
        </mxCell>
        <mxCell id="gg1AurhE85ztV64m09aA-67" value="&lt;span&gt;espontaneidad&lt;/span&gt;" style="ellipse;whiteSpace=wrap;html=1;rounded=0;shadow=1;comic=0;labelBackgroundColor=none;strokeWidth=1;fontFamily=Verdana;fontSize=12;align=center;" vertex="1" parent="1">
          <mxGeometry x="1380" y="530" width="110" height="50" as="geometry" />
        </mxCell>
        <mxCell id="gg1AurhE85ztV64m09aA-69" value="&lt;span&gt;hallazgo inesperado&lt;/span&gt;" style="ellipse;whiteSpace=wrap;html=1;rounded=0;shadow=1;comic=0;labelBackgroundColor=none;strokeWidth=1;fontFamily=Verdana;fontSize=12;align=center;" vertex="1" parent="1">
          <mxGeometry x="1370" y="630" width="165" height="50" as="geometry" />
        </mxCell>
        <mxCell id="gg1AurhE85ztV64m09aA-74" value="sujeta a" style="edgeStyle=none;rounded=1;orthogonalLoop=1;jettySize=auto;html=1;strokeColor=#B3B3B3;" edge="1" parent="1" source="gg1AurhE85ztV64m09aA-71" target="gg1AurhE85ztV64m09aA-73">
          <mxGeometry relative="1" as="geometry" />
        </mxCell>
        <mxCell id="gg1AurhE85ztV64m09aA-71" value="etapa de formulaci贸n l贸gica" style="ellipse;whiteSpace=wrap;html=1;rounded=0;shadow=1;comic=0;labelBackgroundColor=none;strokeWidth=1;fontFamily=Verdana;fontSize=12;align=center;" vertex="1" parent="1">
          <mxGeometry x="1810" y="150" width="245" height="50" as="geometry" />
        </mxCell>
        <mxCell id="gg1AurhE85ztV64m09aA-73" value="evaluaci贸n" style="ellipse;whiteSpace=wrap;html=1;rounded=0;shadow=1;comic=0;labelBackgroundColor=none;strokeWidth=1;fontFamily=Verdana;fontSize=12;align=center;" vertex="1" parent="1">
          <mxGeometry x="1900" y="290" width="143" height="50" as="geometry" />
        </mxCell>
        <mxCell id="gg1AurhE85ztV64m09aA-78" value="debe haber" style="edgeStyle=none;rounded=1;orthogonalLoop=1;jettySize=auto;html=1;strokeColor=#B3B3B3;" edge="1" parent="1" source="gg1AurhE85ztV64m09aA-75" target="gg1AurhE85ztV64m09aA-77">
          <mxGeometry relative="1" as="geometry" />
        </mxCell>
        <mxCell id="gg1AurhE85ztV64m09aA-80" value="debe haber" style="edgeStyle=none;rounded=1;orthogonalLoop=1;jettySize=auto;html=1;exitX=1;exitY=1;exitDx=0;exitDy=0;strokeColor=#B3B3B3;" edge="1" parent="1" source="gg1AurhE85ztV64m09aA-75" target="gg1AurhE85ztV64m09aA-79">
          <mxGeometry relative="1" as="geometry" />
        </mxCell>
        <mxCell id="gg1AurhE85ztV64m09aA-75" value="idea objetiva al lenguaje de s铆mbolos" style="ellipse;whiteSpace=wrap;html=1;rounded=0;shadow=1;comic=0;labelBackgroundColor=none;strokeWidth=1;fontFamily=Verdana;fontSize=12;align=center;" vertex="1" parent="1">
          <mxGeometry x="1884" y="450" width="245" height="50" as="geometry" />
        </mxCell>
        <mxCell id="gg1AurhE85ztV64m09aA-77" value="transmisi贸n" style="ellipse;whiteSpace=wrap;html=1;rounded=0;shadow=1;comic=0;labelBackgroundColor=none;strokeWidth=1;fontFamily=Verdana;fontSize=12;align=center;" vertex="1" parent="1">
          <mxGeometry x="1900" y="570" width="133" height="50" as="geometry" />
        </mxCell>
        <mxCell id="gg1AurhE85ztV64m09aA-79" value="comprensi贸n" style="ellipse;whiteSpace=wrap;html=1;rounded=0;shadow=1;comic=0;labelBackgroundColor=none;strokeWidth=1;fontFamily=Verdana;fontSize=12;align=center;" vertex="1" parent="1">
          <mxGeometry x="2061.5" y="600" width="133" height="50" as="geometry" />
        </mxCell>
        <mxCell id="gg1AurhE85ztV64m09aA-84" value="se aplica" style="edgeStyle=none;rounded=1;orthogonalLoop=1;jettySize=auto;html=1;strokeColor=#B3B3B3;" edge="1" parent="1" source="gg1AurhE85ztV64m09aA-81" target="gg1AurhE85ztV64m09aA-83">
          <mxGeometry relative="1" as="geometry" />
        </mxCell>
        <mxCell id="gg1AurhE85ztV64m09aA-88" value="se aplica" style="edgeStyle=none;rounded=1;orthogonalLoop=1;jettySize=auto;html=1;strokeColor=#B3B3B3;" edge="1" parent="1" source="gg1AurhE85ztV64m09aA-81" target="gg1AurhE85ztV64m09aA-87">
          <mxGeometry relative="1" as="geometry" />
        </mxCell>
        <mxCell id="gg1AurhE85ztV64m09aA-81" value="concretar la idea" style="ellipse;whiteSpace=wrap;html=1;rounded=0;shadow=1;comic=0;labelBackgroundColor=none;strokeWidth=1;fontFamily=Verdana;fontSize=12;align=center;" vertex="1" parent="1">
          <mxGeometry x="1580" y="510" width="110" height="50" as="geometry" />
        </mxCell>
        <mxCell id="gg1AurhE85ztV64m09aA-83" value="buenos h谩bitos de pensamiento" style="ellipse;whiteSpace=wrap;html=1;rounded=0;shadow=1;comic=0;labelBackgroundColor=none;strokeWidth=1;fontFamily=Verdana;fontSize=12;align=center;" vertex="1" parent="1">
          <mxGeometry x="1680" y="700" width="110" height="50" as="geometry" />
        </mxCell>
        <mxCell id="gg1AurhE85ztV64m09aA-87" value="valoraci贸n minuciosa" style="ellipse;whiteSpace=wrap;html=1;rounded=0;shadow=1;comic=0;labelBackgroundColor=none;strokeWidth=1;fontFamily=Verdana;fontSize=12;align=center;" vertex="1" parent="1">
          <mxGeometry x="1570" y="660" width="110" height="50" as="geometry" />
        </mxCell>
        <mxCell id="gg1AurhE85ztV64m09aA-89" value="&amp;nbsp;experimentaci贸n" style="ellipse;whiteSpace=wrap;html=1;rounded=0;shadow=1;comic=0;labelBackgroundColor=none;strokeWidth=1;fontFamily=Verdana;fontSize=12;align=center;" vertex="1" parent="1">
          <mxGeometry x="1900" y="60" width="110" height="50" as="geometry" />
        </mxCell>
        <mxCell id="gg1AurhE85ztV64m09aA-91" value="rechazo" style="ellipse;whiteSpace=wrap;html=1;rounded=0;shadow=1;comic=0;labelBackgroundColor=none;strokeWidth=1;fontFamily=Verdana;fontSize=12;align=center;" vertex="1" parent="1">
          <mxGeometry x="1690" y="250" width="110" height="50" as="geometry" />
        </mxCell>
        <mxCell id="gg1AurhE85ztV64m09aA-93" value="aprobaci贸n" style="ellipse;whiteSpace=wrap;html=1;rounded=0;shadow=1;comic=0;labelBackgroundColor=none;strokeWidth=1;fontFamily=Verdana;fontSize=12;align=center;" vertex="1" parent="1">
          <mxGeometry x="1670" y="190" width="110" height="50" as="geometry" />
        </mxCell>
        <mxCell id="gg1AurhE85ztV64m09aA-95" style="edgeStyle=none;rounded=1;orthogonalLoop=1;jettySize=auto;html=1;exitX=0.5;exitY=0;exitDx=0;exitDy=0;entryX=0.804;entryY=0.08;entryDx=0;entryDy=0;entryPerimeter=0;strokeColor=#B3B3B3;" edge="1" parent="1" source="gg1AurhE85ztV64m09aA-73" target="gg1AurhE85ztV64m09aA-73">
          <mxGeometry relative="1" as="geometry" />
        </mxCell>
        <mxCell id="gg1AurhE85ztV64m09aA-101" value="tiene tipos de&amp;nbsp;" style="edgeStyle=none;rounded=1;orthogonalLoop=1;jettySize=auto;html=1;strokeColor=#B3B3B3;" edge="1" parent="1" source="gg1AurhE85ztV64m09aA-98" target="gg1AurhE85ztV64m09aA-100">
          <mxGeometry relative="1" as="geometry" />
        </mxCell>
        <mxCell id="gg1AurhE85ztV64m09aA-98" value="Heur铆stica" style="ellipse;whiteSpace=wrap;html=1;rounded=0;shadow=1;comic=0;labelBackgroundColor=none;strokeWidth=1;fontFamily=Verdana;fontSize=12;align=center;" vertex="1" parent="1">
          <mxGeometry x="1700" y="430" width="110" height="50" as="geometry" />
        </mxCell>
        <mxCell id="gg1AurhE85ztV64m09aA-103" style="edgeStyle=none;rounded=1;orthogonalLoop=1;jettySize=auto;html=1;strokeColor=#B3B3B3;" edge="1" parent="1" source="gg1AurhE85ztV64m09aA-100" target="gg1AurhE85ztV64m09aA-102">
          <mxGeometry relative="1" as="geometry" />
        </mxCell>
        <mxCell id="gg1AurhE85ztV64m09aA-105" style="edgeStyle=none;rounded=1;orthogonalLoop=1;jettySize=auto;html=1;strokeColor=#B3B3B3;" edge="1" parent="1" source="gg1AurhE85ztV64m09aA-100" target="gg1AurhE85ztV64m09aA-104">
          <mxGeometry relative="1" as="geometry" />
        </mxCell>
        <mxCell id="gg1AurhE85ztV64m09aA-100" value="pensamientos" style="ellipse;whiteSpace=wrap;html=1;rounded=0;shadow=1;comic=0;labelBackgroundColor=none;strokeWidth=1;fontFamily=Verdana;fontSize=12;align=center;" vertex="1" parent="1">
          <mxGeometry x="1774" y="530" width="110" height="50" as="geometry" />
        </mxCell>
        <mxCell id="gg1AurhE85ztV64m09aA-107" value="tiene un orden" style="edgeStyle=none;rounded=1;orthogonalLoop=1;jettySize=auto;html=1;exitX=1;exitY=0.5;exitDx=0;exitDy=0;strokeColor=#B3B3B3;" edge="1" parent="1" source="gg1AurhE85ztV64m09aA-102" target="gg1AurhE85ztV64m09aA-106">
          <mxGeometry relative="1" as="geometry" />
        </mxCell>
        <mxCell id="gg1AurhE85ztV64m09aA-109" value="tiene un orden" style="edgeStyle=none;rounded=1;orthogonalLoop=1;jettySize=auto;html=1;strokeColor=#B3B3B3;" edge="1" parent="1" source="gg1AurhE85ztV64m09aA-102" target="gg1AurhE85ztV64m09aA-108">
          <mxGeometry relative="1" as="geometry" />
        </mxCell>
        <mxCell id="gg1AurhE85ztV64m09aA-114" value="especializado" style="edgeStyle=none;rounded=1;orthogonalLoop=1;jettySize=auto;html=1;exitX=1;exitY=1;exitDx=0;exitDy=0;strokeColor=#B3B3B3;" edge="1" parent="1" source="gg1AurhE85ztV64m09aA-102" target="gg1AurhE85ztV64m09aA-113">
          <mxGeometry relative="1" as="geometry" />
        </mxCell>
        <mxCell id="gg1AurhE85ztV64m09aA-102" value="algor铆tmico" style="ellipse;whiteSpace=wrap;html=1;rounded=0;shadow=1;comic=0;labelBackgroundColor=none;strokeWidth=1;fontFamily=Verdana;fontSize=12;align=center;" vertex="1" parent="1">
          <mxGeometry x="1940" y="680" width="110" height="50" as="geometry" />
        </mxCell>
        <mxCell id="gg1AurhE85ztV64m09aA-110" value="tiene un orden" style="edgeStyle=none;rounded=1;orthogonalLoop=1;jettySize=auto;html=1;exitX=1;exitY=1;exitDx=0;exitDy=0;strokeColor=#B3B3B3;" edge="1" parent="1" source="gg1AurhE85ztV64m09aA-104" target="gg1AurhE85ztV64m09aA-108">
          <mxGeometry relative="1" as="geometry" />
        </mxCell>
        <mxCell id="gg1AurhE85ztV64m09aA-112" value="especializado" style="edgeStyle=none;rounded=1;orthogonalLoop=1;jettySize=auto;html=1;strokeColor=#B3B3B3;" edge="1" parent="1" source="gg1AurhE85ztV64m09aA-104" target="gg1AurhE85ztV64m09aA-111">
          <mxGeometry relative="1" as="geometry" />
        </mxCell>
        <mxCell id="gg1AurhE85ztV64m09aA-104" value="heur铆stico" style="ellipse;whiteSpace=wrap;html=1;rounded=0;shadow=1;comic=0;labelBackgroundColor=none;strokeWidth=1;fontFamily=Verdana;fontSize=12;align=center;" vertex="1" parent="1">
          <mxGeometry x="1820" y="777.5" width="110" height="50" as="geometry" />
        </mxCell>
        <mxCell id="gg1AurhE85ztV64m09aA-106" value="cronol贸gico" style="ellipse;whiteSpace=wrap;html=1;rounded=0;shadow=1;comic=0;labelBackgroundColor=none;strokeWidth=1;fontFamily=Verdana;fontSize=12;align=center;" vertex="1" parent="1">
          <mxGeometry x="2160" y="710" width="110" height="50" as="geometry" />
        </mxCell>
        <mxCell id="gg1AurhE85ztV64m09aA-108" value="l贸gico" style="ellipse;whiteSpace=wrap;html=1;rounded=0;shadow=1;comic=0;labelBackgroundColor=none;strokeWidth=1;fontFamily=Verdana;fontSize=12;align=center;" vertex="1" parent="1">
          <mxGeometry x="1970" y="860" width="110" height="50" as="geometry" />
        </mxCell>
        <mxCell id="gg1AurhE85ztV64m09aA-111" value="descubrir" style="ellipse;whiteSpace=wrap;html=1;rounded=0;shadow=1;comic=0;labelBackgroundColor=none;strokeWidth=1;fontFamily=Verdana;fontSize=12;align=center;" vertex="1" parent="1">
          <mxGeometry x="1680" y="900" width="110" height="50" as="geometry" />
        </mxCell>
        <mxCell id="gg1AurhE85ztV64m09aA-113" value="verificar" style="ellipse;whiteSpace=wrap;html=1;rounded=0;shadow=1;comic=0;labelBackgroundColor=none;strokeWidth=1;fontFamily=Verdana;fontSize=12;align=center;" vertex="1" parent="1">
          <mxGeometry x="2129" y="900" width="110" height="50" as="geometry" />
        </mxCell>
      </root>
    </mxGraphModel>
  </diagram>
</mxfile>
